# xmcd
#
# Track frame offsets:
#	150
#	17496
#	34454
#	50793
#	65584
#	79886
#	96533
#	114955
#	133242
#	153519
#	168920
#	183020
#
# Disc length: 2621 seconds
#
# Revision: 1
# Processed by: cddbd v1.5.2PL0 Copyright (c) Steve Scherf et al.
# Submitted via: audiograbber 1.83.01
#
DISCID=a20a3b0c
DTITLE=Colbie Caillat - Coco
DYEAR=2007
DGENRE=Pop
TTITLE0=Oxygen
TTITLE1=Little Things
TTITLE2=One Fine Wine
TTITLE3=Bubbly 
TTITLE4=Feelings Show
TTITLE5=Midnight Bottle
TTITLE6=Realize 
TTITLE7=Battle 
TTITLE8=Tailor Made
TTITLE9=Magic 
TTITLE10=Tied Down
TTITLE11=Capri 
EXTD=
EXTT0=
EXTT1=
EXTT2=
EXTT3=
EXTT4=
EXTT5=
EXTT6=
EXTT7=
EXTT8=
EXTT9=
EXTT10=
EXTT11=
PLAYORDER=
